<?xml version="1.0" standalone="no"?>
<!DOCTYPE svg PUBLIC "-//W3C//DTD SVG 20010904//EN"
 "http://www.w3.org/TR/2001/REC-SVG-20010904/DTD/svg10.dtd">
<svg version="1.0" xmlns="http://www.w3.org/2000/svg"
 width="700.000000pt" height="700.000000pt" viewBox="0 0 700.000000 700.000000"
 preserveAspectRatio="xMidYMid meet">
<metadata>
Created by potrace 1.11, written by Peter Selinger 2001-2013
</metadata>
<g transform="translate(0.000000,700.000000) scale(0.100000,-0.100000)"
fill="#000000" stroke="none">
<path d="M4344 6232 c-120 -42 -185 -138 -181 -267 2 -58 8 -80 35 -127 39
-68 54 -82 259 -228 89 -63 161 -117 160 -120 0 -3 3 -27 8 -55 9 -54 10 -62
18 -115 5 -32 22 -142 32 -200 7 -40 24 -151 30 -195 4 -22 8 -51 10 -64 3
-14 12 -75 20 -135 9 -61 18 -122 21 -136 2 -14 9 -56 14 -95 6 -38 12 -77 15
-85 2 -8 7 -37 10 -65 3 -27 10 -75 15 -105 5 -30 12 -75 15 -100 3 -25 12
-83 20 -130 7 -47 16 -103 20 -125 3 -22 12 -80 20 -130 8 -49 17 -112 21
-140 3 -27 8 -59 10 -70 5 -26 21 -128 29 -185 4 -25 15 -99 25 -165 10 -66
22 -138 25 -160 3 -22 12 -78 19 -125 8 -47 17 -107 21 -135 3 -27 8 -57 10
-65 3 -10 -21 -28 -78 -58 -209 -109 -370 -272 -477 -485 -28 -54 -59 -130
-71 -168 -11 -38 -26 -70 -32 -70 -7 -1 -420 -2 -918 -3 l-906 -1 -28 85 c-16
47 -44 113 -62 148 -18 35 -33 66 -33 68 0 2 344 4 765 4 528 0 771 3 788 11
60 27 71 112 21 160 l-26 24 -852 3 -853 2 -34 33 c-65 62 -164 135 -249 180
-80 43 -229 99 -295 111 -16 3 -41 8 -55 12 -56 13 -268 13 -356 -1 -358 -55
-683 -291 -839 -610 -67 -139 -96 -237 -111 -384 -3 -31 -7 -68 -8 -84 -2 -15
1 -50 6 -79 26 -141 126 -229 268 -234 l65 -3 31 -75 c100 -240 278 -403 524
-481 122 -38 280 -45 409 -16 280 62 510 266 604 536 l12 35 1230 3 c677 1
1236 4 1244 7 9 3 19 -10 29 -40 49 -146 164 -290 307 -387 314 -214 753 -166
1018 110 63 66 139 183 167 256 l22 59 59 -3 c193 -11 316 126 303 336 -30
495 -397 924 -889 1039 -47 11 -96 20 -110 20 -25 0 -28 8 -41 95 -6 45 -8 60
-24 160 -6 39 -13 84 -15 100 -3 17 -18 120 -35 230 -43 280 -80 524 -86 565
-3 19 -7 42 -9 50 -2 8 -7 42 -11 75 -3 33 -8 62 -9 65 -2 3 -6 30 -10 60 -3
30 -8 62 -10 70 -2 8 -7 35 -10 60 -3 25 -10 70 -15 100 -5 30 -12 75 -15 100
-3 25 -10 70 -15 100 -12 72 -20 127 -26 170 -2 19 -11 76 -19 125 -8 50 -17
110 -20 135 -3 25 -8 52 -10 60 -2 8 -7 35 -10 60 -13 94 -17 118 -36 235 -11
66 -22 136 -25 155 -3 19 -7 46 -9 60 -3 14 -7 40 -10 58 -10 60 -46 142 -84
190 -33 41 -295 234 -470 346 -86 54 -182 68 -267 38z m234 -259 c305 -211
341 -238 361 -273 17 -30 27 -75 55 -240 6 -36 37 -230 41 -260 2 -14 8 -54
14 -90 6 -36 13 -83 16 -105 3 -22 7 -49 9 -60 4 -21 12 -74 20 -135 4 -29 36
-237 51 -330 2 -14 6 -43 9 -65 4 -22 8 -51 11 -65 2 -14 7 -43 10 -65 3 -22
7 -51 10 -65 4 -26 6 -40 31 -205 8 -55 17 -111 19 -125 2 -14 7 -45 10 -70 3
-25 8 -56 10 -70 2 -14 9 -56 15 -95 6 -38 13 -81 15 -95 2 -14 6 -43 9 -65 4
-22 8 -51 11 -65 2 -14 7 -43 10 -65 3 -22 10 -67 15 -100 5 -33 12 -78 15
-100 3 -23 7 -51 10 -62 2 -12 11 -73 20 -135 17 -118 21 -146 29 -188 3 -14
8 -47 11 -74 12 -96 40 -119 160 -131 163 -17 352 -88 471 -178 225 -170 371
-431 388 -692 6 -93 -34 -147 -98 -131 -23 6 -26 12 -27 49 -1 46 -2 57 -13
132 -22 145 -99 295 -211 410 -166 171 -340 247 -570 249 -142 1 -201 -8 -293
-45 -285 -114 -491 -392 -509 -687 l-6 -92 -38 -10 c-58 -16 -2379 -13 -2380
3 0 7 -2 35 -4 63 -4 79 -34 201 -68 279 -107 244 -341 439 -588 491 -106 22
-286 11 -389 -23 -120 -40 -266 -129 -352 -216 -140 -140 -223 -319 -235 -507
-2 -41 -6 -81 -8 -88 -7 -20 -52 -14 -80 11 -21 18 -27 32 -28 67 -1 46 10
160 18 182 2 7 6 24 9 38 14 83 81 227 144 313 144 196 374 336 617 376 106
17 288 6 389 -24 290 -85 510 -286 620 -566 24 -63 53 -174 45 -174 -2 0 6
-15 19 -32 13 -18 36 -36 53 -40 22 -6 1924 -9 2046 -4 29 1 71 47 78 86 26
130 99 295 175 396 99 133 214 222 383 299 81 36 99 49 112 77 9 19 14 46 11
61 -3 15 -8 45 -11 67 -22 156 -50 340 -59 390 -3 17 -8 50 -11 75 -3 25 -7
56 -10 70 -2 14 -7 39 -9 55 -3 17 -7 44 -10 60 -3 17 -8 50 -11 75 -3 25 -8
56 -10 70 -4 21 -11 66 -30 195 -10 68 -16 103 -19 121 -2 12 -7 45 -11 75 -3
30 -8 61 -10 69 -3 8 -7 31 -9 50 -3 19 -7 51 -11 70 -3 19 -8 49 -10 65 -3
31 -9 67 -25 165 -5 30 -12 73 -15 95 -3 23 -7 52 -10 65 -3 14 -7 45 -10 70
-3 25 -7 52 -10 60 -2 8 -7 35 -10 60 -3 25 -7 56 -9 70 -3 14 -7 41 -10 60
-12 82 -45 297 -50 326 -3 17 -8 46 -10 65 -6 39 -15 103 -22 139 -2 14 -11
70 -19 125 -26 163 -13 148 -259 325 -93 67 -177 131 -187 143 -32 39 -20 99
24 117 38 16 74 2 175 -67z"/>
</g>
</svg>
